<svg xmlns="http://www.w3.org/2000/svg" width="20.001" height="20" viewBox="0 0 20.001 20"><g transform="translate(-580 -2388)"><g transform="translate(580 2388)"><path d="M15.984,0,10,5.975,4.016,0,0,4.01,5.984,9.985l-2,2L2.169,13.825,0,16.021,2.785,18.8l1.2,1.2L10,13.995,16.015,20l1.2-1.2L20,16.021l-2.169-2.2-1.815-1.844-2-2L20,4.01Z"/></g><path d="M590,2401.995l-6.016,6-1.2-1.2L580,2404.021l2.169-2.2,1.815-1.844,2-2L580,2392.01l4.016-4.01,5.985,5.975,5.984-5.975,4.016,4.01-5.984,5.974,2,2,1.815,1.844,2.169,2.2-2.785,2.781-1.2,1.2Z" fill="#e16d6d"/></g></svg>